<svg xmlns="http://www.w3.org/2000/svg" viewBox="0 0 24 24">
  <defs>
    <linearGradient id="instaGrad" x1="0%" y1="0%" x2="100%" y2="100%">
      <stop offset="0%" style="stop-color:#F58529"/>
      <stop offset="30%" style="stop-color:#DD2A7B"/>
      <stop offset="60%" style="stop-color:#8134AF"/>
      <stop offset="100%" style="stop-color:#515BD4"/>
    </linearGradient>
  </defs>
  <path fill="url(#instaGrad)" d="M12 2.16c3.2 0 3.58.01 4.85.07 1.17.05 1.97.24 2.43.4.6.23 1.03.51 1.48.96.45.45.73.88.96 1.48.16.46.35 1.26.4 2.43.06 1.27.07 1.65.07 4.85s-.01 3.58-.07 4.85c-.05 1.17-.24 1.97-.4 2.43-.23.6-.51 1.03-.96 1.48-.45.45-.88.73-1.48.96-.46.16-1.26.35-2.43.4-1.27.06-1.65.07-4.85.07s-3.58-.01-4.85-.07c-1.17-.05-1.97-.24-2.43-.4-.6-.23-1.03-.51-1.48-.96-.45-.45-.73-.88-.96-1.48-.16-.46-.35-1.26-.4-2.43-.06-1.27-.07-1.65-.07-4.85s.01-3.58.07-4.85c.05-1.17.24-1.97.4-2.43.23-.6.51-1.03.96-1.48.45-.45.88-.73 1.48-.96.46-.16 1.26-.35 2.43-.4 1.27-.06 1.65-.07 4.85-.07zM12 0C8.74 0 8.33.01 7.05.07c-1.33.06-2.24.27-3.04.58-.83.32-1.53.75-2.23 1.45-.7.7-1.13 1.4-1.45 2.23-.31.8-.52 1.71-.58 3.04C.01 8.33 0 8.74 0 12s.01 3.67.07 4.95c.06 1.33.27 2.24.58 3.04.32.83.75 1.53 1.45 2.23.7.7 1.4 1.13 2.23 1.45.8.31 1.71.52 3.04.58 1.28.06 1.69.07 4.95.07s3.67-.01 4.95-.07c1.33-.06 2.24-.27 3.04-.58.83-.32 1.53-.75 2.23-1.45.7-.7 1.13-1.4 1.45-2.23.31-.8.52-1.71.58-3.04.06-1.28.07-1.69.07-4.95s-.01-3.67-.07-4.95c-.06-1.33-.27-2.24-.58-3.04-.32-.83-.75-1.53-1.45-2.23-.7-.7-1.4-1.13-2.23-1.45-.8-.31-1.71-.52-3.04-.58C15.67.01 15.26 0 12 0z"/>
  <path fill="url(#instaGrad)" d="M12 5.84c-3.4 0-6.16 2.76-6.16 6.16s2.76 6.16 6.16 6.16 6.16-2.76 6.16-6.16-2.76-6.16-6.16-6.16zm0 10.16c-2.21 0-4-1.79-4-4s1.79-4 4-4 4 1.79 4 4-1.79 4-4 4z"/>
  <circle fill="url(#instaGrad)" cx="18.5" cy="5.5" r="1.5"/>
</svg>
