<svg xmlns="http://www.w3.org/2000/svg" viewBox="0 0 24 24" fill="#25D366">
  <path d="M12.04 2C6.58 2 2.13 6.45 2.13 11.91c0 1.75.46 3.45 1.33 4.95L2.05 22l5.32-1.4c1.5.82 3.19 1.25 4.94 1.25 5.46 0 9.91-4.45 9.91-9.91 0-5.46-4.45-9.91-9.91-9.91z"/>
  <path d="M17.5 14.5c-.3.8-1.5 1.5-2.5 1.5-.7 0-1.4-.2-2-.5-1.2-.6-2.5-1.5-3.5-2.5-1-1-1.9-2.3-2.5-3.5-.3-.6-.5-1.3-.5-2 0-1 .7-2.2 1.5-2.5.2-.1.4-.1.5 0 .1.1.2.3.3.5.2.4.5 1 .6 1.2.1.2.1.4 0 .5-.1.1-.2.3-.3.4-.1.1-.2.3-.2.4 0 .1.1.3.2.4.4.7.9 1.3 1.5 1.9.6.6 1.2 1.1 1.9 1.5.1.1.3.2.4.2.1 0 .3-.1.4-.2.1-.1.3-.2.4-.3.1-.1.3-.1.5 0 .2.1.8.4 1.2.6.2.1.4.2.5.3.1.2.1.4 0 .5z" fill="white"/>
</svg>
